<svg width="87" height="87" viewBox="0 0 87 87" fill="none" xmlns="http://www.w3.org/2000/svg">
<path d="M0 43.5C0 19.473 19.473 0 43.5 0C67.527 0 87 19.473 87 43.5C87 67.527 67.527 87 43.5 87C19.473 87 0 67.527 0 43.5ZM29.7363 35.3607L37.7397 43.3471L29.7363 51.4863C28.1561 53.0836 28.1561 55.6664 29.7363 57.1107C31.3336 58.8439 33.9164 58.8439 35.3607 57.1107L43.3471 49.2603L51.4863 57.1107C53.0836 58.8439 55.6664 58.8439 57.1107 57.1107C58.8439 55.6664 58.8439 53.0836 57.1107 51.4863L49.2603 43.3471L57.1107 35.3607C58.8439 33.9164 58.8439 31.3336 57.1107 29.7363C55.6664 28.1561 53.0836 28.1561 51.4863 29.7363L43.3471 37.7397L35.3607 29.7363C33.9164 28.1561 31.3336 28.1561 29.7363 29.7363C28.1561 31.3336 28.1561 33.9164 29.7363 35.3607Z" fill="#FFF4F4"/>
</svg>
