<svg width="193" height="195" viewBox="0 0 193 195" fill="none" xmlns="http://www.w3.org/2000/svg">
<ellipse cx="96.5" cy="97.5" rx="96.5" ry="97.5" fill="white"/>
<path d="M28.6314 105.202V101.89H32.8314C33.8554 101.89 34.7514 101.69 35.5194 101.29C36.2874 100.874 36.8794 100.274 37.2954 99.4901C37.7114 98.7061 37.9194 97.7781 37.9194 96.7061C37.9194 95.6341 37.7034 94.7141 37.2714 93.9461C36.8554 93.1781 36.2634 92.5861 35.4954 92.1701C34.7434 91.7541 33.8554 91.5461 32.8314 91.5461H28.5114V88.2581H32.8794C34.1594 88.2581 35.3354 88.4661 36.4074 88.8821C37.4954 89.2821 38.4394 89.8661 39.2394 90.6341C40.0554 91.3861 40.6794 92.2821 41.1114 93.3221C41.5594 94.3461 41.7834 95.4821 41.7834 96.7301C41.7834 97.9621 41.5594 99.0981 41.1114 100.138C40.6794 101.178 40.0634 102.074 39.2634 102.826C38.4634 103.578 37.5194 104.162 36.4314 104.578C35.3594 104.994 34.1914 105.202 32.9274 105.202H28.6314ZM26.0874 105.202V88.2581H29.8554V105.202H26.0874ZM53.7812 105.466C52.5812 105.466 51.4932 105.202 50.5172 104.674C49.5572 104.13 48.7972 103.394 48.2372 102.466C47.6772 101.538 47.3972 100.498 47.3972 99.3461C47.3972 98.1941 47.6772 97.1621 48.2372 96.2501C48.7972 95.3381 49.5572 94.6181 50.5172 94.0901C51.4772 93.5461 52.5652 93.2741 53.7812 93.2741C54.9972 93.2741 56.0852 93.5381 57.0452 94.0661C58.0052 94.5941 58.7652 95.3221 59.3252 96.2501C59.8852 97.1621 60.1652 98.1941 60.1652 99.3461C60.1652 100.498 59.8852 101.538 59.3252 102.466C58.7652 103.394 58.0052 104.13 57.0452 104.674C56.0852 105.202 54.9972 105.466 53.7812 105.466ZM53.7812 102.13C54.3092 102.13 54.7732 102.018 55.1732 101.794C55.5732 101.554 55.8772 101.226 56.0852 100.81C56.3092 100.378 56.4212 99.8901 56.4212 99.3461C56.4212 98.8021 56.3092 98.3301 56.0852 97.9301C55.8612 97.5141 55.5492 97.1941 55.1492 96.9701C54.7652 96.7301 54.3092 96.6101 53.7812 96.6101C53.2692 96.6101 52.8132 96.7301 52.4132 96.9701C52.0132 97.1941 51.7012 97.5141 51.4772 97.9301C51.2532 98.3461 51.1412 98.8261 51.1412 99.3701C51.1412 99.8981 51.2532 100.378 51.4772 100.81C51.7012 101.226 52.0132 101.554 52.4132 101.794C52.8132 102.018 53.2692 102.13 53.7812 102.13ZM68.9349 105.202L64.9029 93.5381H68.5029L70.9989 102.01L69.9429 102.034L72.7029 93.5381H75.6789L78.4629 102.034L77.3829 102.01L79.9029 93.5381H83.5029L79.4709 105.202H76.4709L73.7589 97.1381H74.6709L71.9109 105.202H68.9349ZM96.9467 105.202V98.5541C96.9467 97.9461 96.7547 97.4581 96.3707 97.0901C96.0027 96.7061 95.5307 96.5141 94.9547 96.5141C94.5547 96.5141 94.2027 96.6021 93.8987 96.7781C93.5947 96.9381 93.3547 97.1781 93.1787 97.4981C93.0027 97.8021 92.9147 98.1541 92.9147 98.5541L91.4987 97.8581C91.4987 96.9461 91.6987 96.1461 92.0987 95.4581C92.4987 94.7701 93.0507 94.2421 93.7547 93.8741C94.4747 93.4901 95.2827 93.2981 96.1787 93.2981C97.0427 93.2981 97.8027 93.5061 98.4587 93.9221C99.1307 94.3221 99.6587 94.8581 100.043 95.5301C100.427 96.2021 100.619 96.9381 100.619 97.7381V105.202H96.9467ZM89.2427 105.202V93.5381H92.9147V105.202H89.2427ZM107.297 105.202V87.7781H110.969V105.202H107.297ZM123.491 105.466C122.291 105.466 121.203 105.202 120.227 104.674C119.267 104.13 118.507 103.394 117.947 102.466C117.387 101.538 117.107 100.498 117.107 99.3461C117.107 98.1941 117.387 97.1621 117.947 96.2501C118.507 95.3381 119.267 94.6181 120.227 94.0901C121.187 93.5461 122.275 93.2741 123.491 93.2741C124.707 93.2741 125.795 93.5381 126.755 94.0661C127.715 94.5941 128.475 95.3221 129.035 96.2501C129.595 97.1621 129.875 98.1941 129.875 99.3461C129.875 100.498 129.595 101.538 129.035 102.466C128.475 103.394 127.715 104.13 126.755 104.674C125.795 105.202 124.707 105.466 123.491 105.466ZM123.491 102.13C124.019 102.13 124.483 102.018 124.883 101.794C125.283 101.554 125.587 101.226 125.795 100.81C126.019 100.378 126.131 99.8901 126.131 99.3461C126.131 98.8021 126.019 98.3301 125.795 97.9301C125.571 97.5141 125.259 97.1941 124.859 96.9701C124.475 96.7301 124.019 96.6101 123.491 96.6101C122.979 96.6101 122.523 96.7301 122.123 96.9701C121.723 97.1941 121.411 97.5141 121.187 97.9301C120.963 98.3461 120.851 98.8261 120.851 99.3701C120.851 99.8981 120.963 100.378 121.187 100.81C121.411 101.226 121.723 101.554 122.123 101.794C122.523 102.018 122.979 102.13 123.491 102.13ZM140.895 105.442C139.823 105.442 138.863 105.178 138.015 104.65C137.183 104.122 136.519 103.402 136.023 102.49C135.543 101.578 135.303 100.538 135.303 99.3701C135.303 98.2021 135.543 97.1621 136.023 96.2501C136.519 95.3381 137.183 94.6181 138.015 94.0901C138.863 93.5621 139.823 93.2981 140.895 93.2981C141.679 93.2981 142.383 93.4501 143.007 93.7541C143.647 94.0581 144.167 94.4821 144.567 95.0261C144.967 95.5541 145.191 96.1621 145.239 96.8501V101.89C145.191 102.578 144.967 103.194 144.567 103.738C144.183 104.266 143.671 104.682 143.031 104.986C142.391 105.29 141.679 105.442 140.895 105.442ZM141.639 102.13C142.423 102.13 143.055 101.874 143.535 101.362C144.015 100.834 144.255 100.17 144.255 99.3701C144.255 98.8261 144.143 98.3461 143.919 97.9301C143.711 97.5141 143.407 97.1941 143.007 96.9701C142.623 96.7301 142.175 96.6101 141.663 96.6101C141.151 96.6101 140.695 96.7301 140.295 96.9701C139.911 97.1941 139.599 97.5141 139.359 97.9301C139.135 98.3461 139.023 98.8261 139.023 99.3701C139.023 99.8981 139.135 100.37 139.359 100.786C139.583 101.202 139.895 101.53 140.295 101.77C140.695 102.01 141.143 102.13 141.639 102.13ZM144.111 105.202V102.058L144.663 99.2261L144.111 96.3941V93.5381H147.711V105.202H144.111ZM159.584 105.442C158.48 105.442 157.496 105.178 156.632 104.65C155.784 104.122 155.112 103.402 154.616 102.49C154.136 101.578 153.896 100.538 153.896 99.3701C153.896 98.2021 154.136 97.1621 154.616 96.2501C155.112 95.3381 155.784 94.6181 156.632 94.0901C157.496 93.5621 158.48 93.2981 159.584 93.2981C160.384 93.2981 161.104 93.4501 161.744 93.7541C162.4 94.0581 162.936 94.4821 163.352 95.0261C163.784 95.5541 164.024 96.1621 164.072 96.8501V101.77C164.024 102.458 163.792 103.082 163.376 103.642C162.96 104.186 162.424 104.626 161.768 104.962C161.112 105.282 160.384 105.442 159.584 105.442ZM160.232 102.13C160.76 102.13 161.216 102.018 161.6 101.794C161.984 101.554 162.288 101.226 162.512 100.81C162.736 100.394 162.848 99.9141 162.848 99.3701C162.848 98.8261 162.736 98.3541 162.512 97.9541C162.304 97.5381 162 97.2101 161.6 96.9701C161.216 96.7301 160.768 96.6101 160.256 96.6101C159.744 96.6101 159.288 96.7301 158.888 96.9701C158.504 97.2101 158.192 97.5381 157.952 97.9541C157.728 98.3701 157.616 98.8421 157.616 99.3701C157.616 99.8981 157.728 100.37 157.952 100.786C158.176 101.202 158.488 101.53 158.888 101.77C159.288 102.01 159.736 102.13 160.232 102.13ZM166.304 105.202H162.704V102.058L163.256 99.2261L162.632 96.3941V87.7781H166.304V105.202Z" fill="#37474A"/>
</svg>
