<svg width="211" height="211" viewBox="0 0 211 211" fill="none" xmlns="http://www.w3.org/2000/svg">
<g filter="url(#filter0_d_65_143)">
<circle cx="105.5" cy="101.5" r="101.5" fill="#B01D1D"/>
<path d="M33.7583 108V91.056H37.5263V108H33.7583ZM36.6383 108V104.736H45.9263V108H36.6383ZM36.6383 100.92V97.776H45.0863V100.92H36.6383ZM36.6383 94.296V91.056H45.8063V94.296H36.6383ZM57.3821 108.24C56.2781 108.24 55.2941 107.976 54.4301 107.448C53.5821 106.92 52.9101 106.2 52.4141 105.288C51.9341 104.376 51.6941 103.336 51.6941 102.168C51.6941 101 51.9341 99.96 52.4141 99.048C52.9101 98.136 53.5821 97.416 54.4301 96.888C55.2941 96.36 56.2781 96.096 57.3821 96.096C58.1821 96.096 58.9021 96.248 59.5421 96.552C60.1981 96.856 60.7341 97.28 61.1501 97.824C61.5821 98.352 61.8221 98.96 61.8701 99.648V104.568C61.8221 105.256 61.5901 105.88 61.1741 106.44C60.7581 106.984 60.2221 107.424 59.5661 107.76C58.9101 108.08 58.1821 108.24 57.3821 108.24ZM58.0301 104.928C58.5581 104.928 59.0141 104.816 59.3981 104.592C59.7821 104.352 60.0861 104.024 60.3101 103.608C60.5341 103.192 60.6461 102.712 60.6461 102.168C60.6461 101.624 60.5341 101.152 60.3101 100.752C60.1021 100.336 59.7981 100.008 59.3981 99.768C59.0141 99.528 58.5661 99.408 58.0541 99.408C57.5421 99.408 57.0861 99.528 56.6861 99.768C56.3021 100.008 55.9901 100.336 55.7501 100.752C55.5261 101.168 55.4141 101.64 55.4141 102.168C55.4141 102.696 55.5261 103.168 55.7501 103.584C55.9741 104 56.2861 104.328 56.6861 104.568C57.0861 104.808 57.5341 104.928 58.0301 104.928ZM64.1021 108H60.5021V104.856L61.0541 102.024L60.4301 99.192V90.576H64.1021V108ZM76.1916 108.264C75.1196 108.264 74.1676 108.048 73.3356 107.616C72.5196 107.168 71.8796 106.56 71.4156 105.792C70.9516 105.008 70.7196 104.112 70.7196 103.104V96.336H74.3916V103.056C74.3916 103.456 74.4556 103.8 74.5836 104.088C74.7276 104.376 74.9356 104.6 75.2076 104.76C75.4796 104.92 75.8076 105 76.1916 105C76.7356 105 77.1676 104.832 77.4876 104.496C77.8076 104.144 77.9676 103.664 77.9676 103.056V96.336H81.6396V103.08C81.6396 104.104 81.4076 105.008 80.9436 105.792C80.4796 106.56 79.8396 107.168 79.0236 107.616C78.2076 108.048 77.2636 108.264 76.1916 108.264ZM93.9051 108.264C92.7051 108.264 91.6171 108 90.6411 107.472C89.6651 106.944 88.8971 106.216 88.3371 105.288C87.7771 104.36 87.4971 103.32 87.4971 102.168C87.4971 101 87.7771 99.96 88.3371 99.048C88.9131 98.12 89.6891 97.392 90.6651 96.864C91.6411 96.336 92.7371 96.072 93.9531 96.072C94.8651 96.072 95.6971 96.232 96.4491 96.552C97.2171 96.856 97.8971 97.32 98.4891 97.944L96.1371 100.296C95.8651 99.992 95.5451 99.768 95.1771 99.624C94.8251 99.48 94.4171 99.408 93.9531 99.408C93.4251 99.408 92.9531 99.528 92.5371 99.768C92.1371 99.992 91.8171 100.312 91.5771 100.728C91.3531 101.128 91.2411 101.6 91.2411 102.144C91.2411 102.688 91.3531 103.168 91.5771 103.584C91.8171 104 92.1451 104.328 92.5611 104.568C92.9771 104.808 93.4411 104.928 93.9531 104.928C94.4331 104.928 94.8571 104.848 95.2251 104.688C95.6091 104.512 95.9371 104.272 96.2091 103.968L98.5371 106.32C97.9291 106.96 97.2411 107.448 96.4731 107.784C95.7051 108.104 94.8491 108.264 93.9051 108.264ZM109.082 108.24C108.01 108.24 107.05 107.976 106.202 107.448C105.37 106.92 104.706 106.2 104.21 105.288C103.73 104.376 103.49 103.336 103.49 102.168C103.49 101 103.73 99.96 104.21 99.048C104.706 98.136 105.37 97.416 106.202 96.888C107.05 96.36 108.01 96.096 109.082 96.096C109.866 96.096 110.57 96.248 111.194 96.552C111.834 96.856 112.354 97.28 112.754 97.824C113.154 98.352 113.378 98.96 113.426 99.648V104.688C113.378 105.376 113.154 105.992 112.754 106.536C112.37 107.064 111.858 107.48 111.218 107.784C110.578 108.088 109.866 108.24 109.082 108.24ZM109.826 104.928C110.61 104.928 111.242 104.672 111.722 104.16C112.202 103.632 112.442 102.968 112.442 102.168C112.442 101.624 112.33 101.144 112.106 100.728C111.898 100.312 111.594 99.992 111.194 99.768C110.81 99.528 110.362 99.408 109.85 99.408C109.338 99.408 108.882 99.528 108.482 99.768C108.098 99.992 107.786 100.312 107.546 100.728C107.322 101.144 107.21 101.624 107.21 102.168C107.21 102.696 107.322 103.168 107.546 103.584C107.77 104 108.082 104.328 108.482 104.568C108.882 104.808 109.33 104.928 109.826 104.928ZM112.298 108V104.856L112.85 102.024L112.298 99.192V96.336H115.898V108H112.298ZM124.459 108V91.512H128.132V108H124.459ZM121.819 99.456V96.336H130.771V99.456H121.819ZM136.709 108V96.336H140.381V108H136.709ZM138.557 94.728C137.981 94.728 137.501 94.536 137.117 94.152C136.749 93.752 136.565 93.272 136.565 92.712C136.565 92.136 136.749 91.656 137.117 91.272C137.501 90.888 137.981 90.696 138.557 90.696C139.133 90.696 139.605 90.888 139.973 91.272C140.341 91.656 140.525 92.136 140.525 92.712C140.525 93.272 140.341 93.752 139.973 94.152C139.605 94.536 139.133 94.728 138.557 94.728ZM152.903 108.264C151.703 108.264 150.615 108 149.639 107.472C148.679 106.928 147.919 106.192 147.359 105.264C146.799 104.336 146.519 103.296 146.519 102.144C146.519 100.992 146.799 99.96 147.359 99.048C147.919 98.136 148.679 97.416 149.639 96.888C150.599 96.344 151.687 96.072 152.903 96.072C154.119 96.072 155.207 96.336 156.167 96.864C157.127 97.392 157.887 98.12 158.447 99.048C159.007 99.96 159.287 100.992 159.287 102.144C159.287 103.296 159.007 104.336 158.447 105.264C157.887 106.192 157.127 106.928 156.167 107.472C155.207 108 154.119 108.264 152.903 108.264ZM152.903 104.928C153.431 104.928 153.895 104.816 154.295 104.592C154.695 104.352 154.999 104.024 155.207 103.608C155.431 103.176 155.543 102.688 155.543 102.144C155.543 101.6 155.431 101.128 155.207 100.728C154.983 100.312 154.671 99.992 154.271 99.768C153.887 99.528 153.431 99.408 152.903 99.408C152.391 99.408 151.935 99.528 151.535 99.768C151.135 99.992 150.823 100.312 150.599 100.728C150.375 101.144 150.263 101.624 150.263 102.168C150.263 102.696 150.375 103.176 150.599 103.608C150.823 104.024 151.135 104.352 151.535 104.592C151.935 104.816 152.391 104.928 152.903 104.928ZM173.139 108V101.352C173.139 100.744 172.947 100.256 172.563 99.888C172.195 99.504 171.723 99.312 171.147 99.312C170.747 99.312 170.395 99.4 170.091 99.576C169.787 99.736 169.547 99.976 169.371 100.296C169.195 100.6 169.107 100.952 169.107 101.352L167.691 100.656C167.691 99.744 167.891 98.944 168.291 98.256C168.691 97.568 169.243 97.04 169.947 96.672C170.667 96.288 171.475 96.096 172.371 96.096C173.235 96.096 173.995 96.304 174.651 96.72C175.323 97.12 175.851 97.656 176.235 98.328C176.619 99 176.811 99.736 176.811 100.536V108H173.139ZM165.435 108V96.336H169.107V108H165.435Z" fill="#FFFDFD"/>
</g>
<defs>
<filter id="filter0_d_65_143" x="0" y="0" width="211" height="211" filterUnits="userSpaceOnUse" color-interpolation-filters="sRGB">
<feFlood flood-opacity="0" result="BackgroundImageFix"/>
<feColorMatrix in="SourceAlpha" type="matrix" values="0 0 0 0 0 0 0 0 0 0 0 0 0 0 0 0 0 0 127 0" result="hardAlpha"/>
<feOffset dy="4"/>
<feGaussianBlur stdDeviation="2"/>
<feComposite in2="hardAlpha" operator="out"/>
<feColorMatrix type="matrix" values="0 0 0 0 0 0 0 0 0 0 0 0 0 0 0 0 0 0 0.25 0"/>
<feBlend mode="normal" in2="BackgroundImageFix" result="effect1_dropShadow_65_143"/>
<feBlend mode="normal" in="SourceGraphic" in2="effect1_dropShadow_65_143" result="shape"/>
</filter>
</defs>
</svg>
