<svg width="128" height="128" viewBox="0 0 128 128" fill="none" xmlns="http://www.w3.org/2000/svg">
<circle cx="64" cy="64" r="64" fill="#B90808"/>
<path d="M65.2474 73.4719C63.6179 73.4725 61.9881 72.9373 60.5977 71.8519L40.0041 55.8112L40.0127 78.2252C40.0137 80.8441 42.133 82.9681 44.7463 82.9671L85.7557 82.9515C88.3691 82.9505 90.4868 80.8259 90.4858 78.2059L90.4772 55.792L69.8998 71.8592C68.5102 72.937 66.874 73.4713 65.2474 73.4719ZM41.6089 53.0533L62.5339 69.3617C64.1304 70.6063 66.3662 70.6055 67.9617 69.3596L88.8743 53.0353C89.7957 52.2443 90.4754 51.0285 90.4749 49.7437C90.4739 47.1238 88.3536 45.0008 85.7413 45.0018L44.7319 45.0175C42.1185 45.0185 40.0008 47.1431 40.0018 49.763C40.0023 51.0477 40.5952 52.2631 41.6089 53.0533Z" fill="#FDF2F2"/>
</svg>
