<svg width="128" height="128" viewBox="0 0 128 128" fill="none" xmlns="http://www.w3.org/2000/svg">
<circle cx="64" cy="64" r="64" fill="white"/>
<path d="M54.2874 84.9213C54.2917 85.1789 54.0134 85.3897 53.6582 85.3957C53.2545 85.4411 52.9693 85.2398 52.9643 84.9436C52.96 84.686 53.2382 84.4752 53.5935 84.4692C53.9604 84.4244 54.2824 84.6251 54.2874 84.9213ZM50.4677 84.406C50.3863 84.6651 50.6363 84.9571 51.0051 85.0282C51.3258 85.1516 51.6911 85.0166 51.7603 84.7578C51.8294 84.499 51.5917 84.2067 51.2222 84.097C50.9022 84.0122 50.5491 84.147 50.4677 84.406ZM55.8787 84.0957C55.525 84.1919 55.2841 84.4407 55.3258 84.7363C55.3669 84.9932 55.6883 85.1553 56.0543 85.0589C56.408 84.9628 56.6489 84.714 56.6078 84.457C56.5669 84.2129 56.2333 84.0511 55.8787 84.0957ZM63.1067 34.6074C46.1152 34.8942 33.3463 48.6751 33.6477 66.5382C33.8888 80.821 42.6459 92.8989 54.9322 96.9943C56.5053 97.2641 57.0394 96.2373 57.0253 95.4002C57.0118 94.6017 56.9007 90.1977 56.8551 87.4931C56.8551 87.4931 48.3123 89.5697 46.4141 83.8303C46.4141 83.8303 44.9543 80.1061 42.9289 79.1741C42.9289 79.1741 40.0895 77.1994 43.0915 77.1874C43.0915 77.1874 46.1462 77.3935 47.8763 80.4304C50.643 85.3564 55.1148 83.8509 56.8523 82.9714C57.0993 80.906 57.8715 79.463 58.7391 78.5981C51.8776 77.9151 44.9507 76.9885 44.7417 64.599C44.6819 61.0573 45.5829 59.2642 47.5048 56.9645C47.1721 56.1327 46.0726 52.6987 47.6757 48.2143C50.2219 47.3339 56.1872 51.5489 56.1872 51.5489C58.6252 50.7864 61.2527 50.3684 63.8621 50.3244C66.4714 50.2804 69.1116 50.6094 71.5739 51.2893C71.5739 51.2893 77.3933 46.8625 79.968 47.6693C81.7218 52.11 80.7385 55.5662 80.4341 56.4088C82.4327 58.6553 83.6632 60.4123 83.7228 63.9411C83.9325 76.3693 76.7337 77.4828 69.8994 78.4097C71.0436 79.4082 72.0317 81.3239 72.0828 84.3504C72.156 88.6907 72.2099 94.0618 72.2277 95.1179C72.2419 95.955 72.8226 96.9629 74.3734 96.6405C86.5517 92.1579 94.6513 79.7956 94.4103 65.5128C94.1088 47.6497 80.0981 34.3207 63.1067 34.6074ZM45.7745 79.3322C45.6175 79.4636 45.6592 79.7592 45.8716 80.0004C46.0711 80.2032 46.3544 80.2886 46.5108 80.1185C46.6679 79.987 46.6261 79.6914 46.4137 79.4502C46.2143 79.2475 45.931 79.1621 45.7745 79.3322ZM44.4339 78.3113C44.351 78.4802 44.4769 78.6842 44.7241 78.8088C44.9223 78.9343 45.1667 78.8915 45.2494 78.7098C45.3323 78.5409 45.2063 78.3369 44.9591 78.2123C44.7128 78.1391 44.5175 78.1811 44.4339 78.3113ZM48.4804 82.8292C48.2872 83 48.3673 83.3851 48.6532 83.625C48.9399 83.9165 49.2958 83.9491 49.4516 83.7404C49.608 83.5703 49.528 83.1852 49.2789 82.9446C49.0044 82.6529 48.6362 82.6205 48.4804 82.8292ZM47.0519 80.9596C46.8581 81.0917 46.8637 81.4265 47.0647 81.7195C47.2657 82.0124 47.5987 82.1356 47.7558 82.0041C47.949 81.8334 47.9433 81.4985 47.7423 81.2056C47.5658 80.9123 47.2451 80.7889 47.0519 80.9596Z" fill="#34514C"/>
</svg>
