<svg width="128" height="128" viewBox="0 0 128 128" fill="none" xmlns="http://www.w3.org/2000/svg">
<circle cx="64" cy="64" r="64" fill="white"/>
<g filter="url(#filter0_d_20_69)">
<path d="M50.3039 75.2328C50.3039 78.1239 47.9602 80.4676 45.069 80.4676C42.1779 80.4676 39.8342 78.1239 39.8342 75.2328V52.6755C39.8342 49.7844 42.1779 47.4406 45.069 47.4406C47.9602 47.4406 50.3039 49.7844 50.3039 52.6755V75.2328ZM45.0634 42.9354C41.7155 42.9354 39 40.2191 39 36.9396C39 35.3643 39.6388 33.8535 40.7759 32.7397C41.913 31.6258 43.4553 31 45.0634 31C46.6715 31 48.2137 31.6258 49.3508 32.7397C50.4879 33.8535 51.1268 35.3643 51.1268 36.9396C51.1268 40.2191 48.4101 42.9354 45.0634 42.9354ZM89.4887 80.4676C83.7189 80.4676 79.0415 75.7903 79.0415 70.0204V64.3903C79.0415 60.5587 78.9626 55.6449 73.5981 55.6449C68.1547 55.6449 67.3206 59.8078 67.3206 64.1142V75.2384C67.3206 78.1264 64.9794 80.4676 62.0914 80.4676C59.2033 80.4676 56.8621 78.1264 56.8621 75.2384V52.4613C56.8621 49.6885 59.11 47.4406 61.8828 47.4406H64.6509C65.895 47.4406 66.9035 48.4491 66.9035 49.6932V51.8541C66.9035 51.9047 66.9446 51.9458 66.9953 51.9458C67.029 51.9458 67.0597 51.9277 67.076 51.8981C68.4897 49.3175 71.8934 46.6125 76.9562 46.6125C87.5521 46.6125 89.5 53.4475 89.5 62.3254V80.4564C89.5 80.4626 89.495 80.4676 89.4887 80.4676Z" fill="#3D6560"/>
</g>
<defs>
<filter id="filter0_d_20_69" x="35" y="31" width="58.5" height="57.4675" filterUnits="userSpaceOnUse" color-interpolation-filters="sRGB">
<feFlood flood-opacity="0" result="BackgroundImageFix"/>
<feColorMatrix in="SourceAlpha" type="matrix" values="0 0 0 0 0 0 0 0 0 0 0 0 0 0 0 0 0 0 127 0" result="hardAlpha"/>
<feOffset dy="4"/>
<feGaussianBlur stdDeviation="2"/>
<feComposite in2="hardAlpha" operator="out"/>
<feColorMatrix type="matrix" values="0 0 0 0 0 0 0 0 0 0 0 0 0 0 0 0 0 0 0.25 0"/>
<feBlend mode="normal" in2="BackgroundImageFix" result="effect1_dropShadow_20_69"/>
<feBlend mode="normal" in="SourceGraphic" in2="effect1_dropShadow_20_69" result="shape"/>
</filter>
</defs>
</svg>
