<svg width="203" height="203" viewBox="0 0 203 203" fill="none" xmlns="http://www.w3.org/2000/svg">
<circle cx="101.5" cy="101.5" r="101.5" fill="#B01D1D"/>
<path d="M68.7013 108.264C67.3093 108.264 66.1093 108.04 65.1013 107.592C64.1093 107.128 63.1973 106.432 62.3653 105.504L64.8133 103.08C65.3573 103.704 65.9573 104.192 66.6133 104.544C67.2853 104.88 68.0613 105.048 68.9413 105.048C69.7413 105.048 70.3573 104.904 70.7893 104.616C71.2373 104.328 71.4613 103.928 71.4613 103.416C71.4613 102.952 71.3173 102.576 71.0293 102.288C70.7413 102 70.3573 101.752 69.8773 101.544C69.4133 101.336 68.8933 101.136 68.3173 100.944C67.7573 100.752 67.1973 100.536 66.6373 100.296C66.0773 100.04 65.5573 99.728 65.0773 99.36C64.6133 98.976 64.2373 98.504 63.9493 97.944C63.6613 97.368 63.5173 96.648 63.5173 95.784C63.5173 94.744 63.7653 93.848 64.2613 93.096C64.7733 92.344 65.4773 91.776 66.3733 91.392C67.2693 90.992 68.3013 90.792 69.4693 90.792C70.6533 90.792 71.7333 91 72.7093 91.416C73.7013 91.832 74.5173 92.4 75.1573 93.12L72.7093 95.544C72.1973 95.016 71.6773 94.624 71.1493 94.368C70.6373 94.112 70.0533 93.984 69.3973 93.984C68.7413 93.984 68.2213 94.112 67.8373 94.368C67.4533 94.608 67.2613 94.96 67.2613 95.424C67.2613 95.856 67.4053 96.208 67.6933 96.48C67.9813 96.736 68.3573 96.96 68.8213 97.152C69.3013 97.344 69.8213 97.536 70.3813 97.728C70.9573 97.92 71.5253 98.144 72.0853 98.4C72.6453 98.656 73.1573 98.984 73.6213 99.384C74.1013 99.768 74.4853 100.264 74.7733 100.872C75.0613 101.464 75.2053 102.2 75.2053 103.08C75.2053 104.696 74.6293 105.968 73.4773 106.896C72.3253 107.808 70.7333 108.264 68.7013 108.264ZM89.0534 108L84.9734 101.952L89.0294 96.336H93.1334L88.2374 102.648L88.3574 101.136L93.3734 108H89.0534ZM81.5894 108V90.576H85.2614V108H81.5894ZM98.5891 108V96.336H102.261V108H98.5891ZM100.437 94.728C99.8611 94.728 99.3811 94.536 98.9971 94.152C98.6291 93.752 98.4451 93.272 98.4451 92.712C98.4451 92.136 98.6291 91.656 98.9971 91.272C99.3811 90.888 99.8611 90.696 100.437 90.696C101.013 90.696 101.485 90.888 101.853 91.272C102.221 91.656 102.405 92.136 102.405 92.712C102.405 93.272 102.221 93.752 101.853 94.152C101.485 94.536 101.013 94.728 100.437 94.728ZM109.167 108V90.576H112.839V108H109.167ZM119.745 108V90.576H123.417V108H119.745ZM134.571 108.288C133.883 108.288 133.203 108.2 132.531 108.024C131.875 107.848 131.259 107.6 130.683 107.28C130.123 106.944 129.643 106.56 129.243 106.128L131.331 104.016C131.715 104.432 132.171 104.76 132.699 105C133.227 105.224 133.803 105.336 134.427 105.336C134.859 105.336 135.187 105.272 135.411 105.144C135.651 105.016 135.771 104.84 135.771 104.616C135.771 104.328 135.627 104.112 135.339 103.968C135.067 103.808 134.715 103.672 134.283 103.56C133.851 103.432 133.395 103.296 132.915 103.152C132.435 103.008 131.979 102.808 131.547 102.552C131.115 102.296 130.763 101.944 130.491 101.496C130.219 101.032 130.083 100.448 130.083 99.744C130.083 98.992 130.275 98.344 130.659 97.8C131.043 97.24 131.587 96.8 132.291 96.48C132.995 96.16 133.819 96 134.763 96C135.755 96 136.667 96.176 137.499 96.528C138.347 96.864 139.035 97.368 139.563 98.04L137.475 100.152C137.107 99.72 136.691 99.416 136.227 99.24C135.779 99.064 135.339 98.976 134.907 98.976C134.491 98.976 134.179 99.04 133.971 99.168C133.763 99.28 133.659 99.448 133.659 99.672C133.659 99.912 133.795 100.104 134.067 100.248C134.339 100.392 134.691 100.52 135.123 100.632C135.555 100.744 136.011 100.88 136.491 101.04C136.971 101.2 137.427 101.416 137.859 101.688C138.291 101.96 138.643 102.328 138.915 102.792C139.187 103.24 139.323 103.832 139.323 104.568C139.323 105.704 138.891 106.608 138.027 107.28C137.179 107.952 136.027 108.288 134.571 108.288Z" fill="#FFFDFD"/>
</svg>
